{
  "accessors": [
    {
      "bufferView": 2,
      "componentType": 5126,
      "count": 14723,
      "max": [
        14.37548828125,
        30.959262847900391,
        20.56439208984375
      ],
      "min": [
        -14.37548828125,
        -0.040819928050041199,
        -17.057567596435547
      ],
      "type": "VEC3"
    },
    {
      "bufferView": 2,
      "byteOffset": 176676,
      "componentType": 5126,
      "count": 14723,
      "max": [
        0.99993896484375,
        0.99986094236373901,
        0.99930703639984131
      ],
      "min": [
        -0.99993896484375,
        -0.99988758563995361,
        -0.99961221218109131
      ],
      "type": "VEC3"
    },
    {
      "bufferView": 3,
      "componentType": 5126,
      "count": 14723,
      "max": [
        1,
        0.99989241361618042,
        0.99995797872543335,
        1
      ],
      "min": [
        -0.99999880790710449,
        -0.99983400106430054,
        -0.99978983402252197,
        -1
      ],
      "type": "VEC4"
    },
    {
      "bufferView": 1,
      "componentType": 5126,
      "count": 14723,
      "max": [
        0.99717533588409424,
        0.99628275632858276
      ],
      "min": [
        0.0024502277374267578,
        0.0032196938991546631
      ],
      "type": "VEC2"
    },
    {
      "bufferView": 1,
      "byteOffset": 117784,
      "componentType": 5126,
      "count": 14723,
      "max": [
        0.99717533588409424,
        0.99628275632858276
      ],
      "min": [
        0.0024502277374267578,
        0.0032196938991546631
      ],
      "type": "VEC2"
    },
    {
      "bufferView": 0,
      "componentType": 5125,
      "count": 68316,
      "max": [
        14722
      ],
      "min": [
        0
      ],
      "type": "SCALAR"
    }
  ],
  "asset": {
    "extras": {
      "author": "desertclaw95 (https://sketchfab.com/desertclaw95)",
      "license": "CC-BY-4.0 (http://creativecommons.org/licenses/by/4.0/)",
      "source": "https://sketchfab.com/3d-models/bee-3ee0c479c4fa479da3c2fdc790be8588",
      "title": "Bee"
    },
    "generator": "Sketchfab-9.94.0",
    "version": "2.0"
  },
  "bufferViews": [
    {
      "buffer": 0,
      "byteLength": 273264,
      "byteOffset": 0,
      "name": "floatBufferViews",
      "target": 34963
    },
    {
      "buffer": 0,
      "byteLength": 235568,
      "byteOffset": 273264,
      "byteStride": 8,
      "name": "floatBufferViews",
      "target": 34962
    },
    {
      "buffer": 0,
      "byteLength": 353352,
      "byteOffset": 508832,
      "byteStride": 12,
      "name": "floatBufferViews",
      "target": 34962
    },
    {
      "buffer": 0,
      "byteLength": 235568,
      "byteOffset": 862184,
      "byteStride": 16,
      "name": "floatBufferViews",
      "target": 34962
    }
  ],
  "buffers": [
    {
      "byteLength": 1097752,
      "uri": "scene.bin"
    }
  ],
  "images": [
    {
      "uri": "textures/bee_12_04bee_baseColor.png"
    },
    {
      "uri": "textures/bee_12_04bee_metallicRoughness.png"
    },
    {
      "uri": "textures/bee_12_04bee_normal.png"
    }
  ],
  "materials": [
    {
      "doubleSided": true,
      "emissiveFactor": [
        0,
        0,
        0
      ],
      "name": "bee_12_04bee",
      "normalTexture": {
        "index": 2,
        "scale": 1,
        "texCoord": 0
      },
      "pbrMetallicRoughness": {
        "baseColorFactor": [
          1,
          1,
          1,
          1
        ],
        "baseColorTexture": {
          "index": 0,
          "texCoord": 0
        },
        "metallicFactor": 1,
        "metallicRoughnessTexture": {
          "index": 1,
          "texCoord": 0
        },
        "roughnessFactor": 1
      }
    }
  ],
  "meshes": [
    {
      "name": "Bee_bee_12_04:bee_0",
      "primitives": [
        {
          "attributes": {
            "NORMAL": 1,
            "POSITION": 0,
            "TANGENT": 2,
            "TEXCOORD_0": 3,
            "TEXCOORD_1": 4
          },
          "indices": 5,
          "material": 0,
          "mode": 4
        }
      ]
    }
  ],
  "nodes": [
    {
      "children": [
        1
      ],
      "name": "RootNode (gltf orientation matrix)",
      "rotation": [
        -0.70710678118654746,
        -0,
        -0,
        0.70710678118654757
      ]
    },
    {
      "children": [
        2
      ],
      "matrix": [
        -1,
        0,
        1.6081226229577292e-16,
        0,
        0,
        1,
        0,
        0,
        -1.6081226229577292e-16,
        0,
        -1,
        0,
        -5.626678216685832e-07,
        1.3877787807814457e-17,
        -0.30918458104133606,
        1
      ],
      "name": "RootNode (model correction matrix)"
    },
    {
      "children": [
        3
      ],
      "matrix": [
        1,
        0,
        0,
        0,
        0,
        -1,
        0,
        0,
        0,
        0,
        -1,
        0,
        0,
        0,
        0,
        1
      ],
      "name": "c31ec1498cb645b3bd06670ede6fc103.fbx"
    },
    {
      "children": [
        4
      ],
      "name": "RootNode"
    },
    {
      "children": [
        5
      ],
      "matrix": [
        0.0099999997764825821,
        0,
        0,
        0,
        0,
        2.2204459996194763e-18,
        0.0099999997764825821,
        0,
        0,
        -0.0099999997764825821,
        2.2204459996194763e-18,
        0,
        0,
        2.2204460492503131e-16,
        0,
        1
      ],
      "name": "Bee"
    },
    {
      "mesh": 0,
      "name": "Bee_bee_12_04:bee_0"
    }
  ],
  "samplers": [
    {
      "magFilter": 9729,
      "minFilter": 9987,
      "wrapS": 10497,
      "wrapT": 10497
    }
  ],
  "scene": 0,
  "scenes": [
    {
      "name": "OSG_Scene",
      "nodes": [
        0
      ]
    }
  ],
  "textures": [
    {
      "sampler": 0,
      "source": 0
    },
    {
      "sampler": 0,
      "source": 1
    },
    {
      "sampler": 0,
      "source": 2
    }
  ]
}

